<mxfile host="app.diagrams.net" modified="2022-07-12T14:04:14.198Z" agent="5.0 (Macintosh; Intel Mac OS X 10_15_7) AppleWebKit/537.36 (KHTML, like Gecko) Chrome/103.0.0.0 Safari/537.36" etag="5gtuwT1J3bzqbjNsErb9" version="20.0.3" type="github">
  <diagram id="xXiOh94Zjy2rgz48Bsy7" name="Page-1">
    <mxGraphModel dx="1666" dy="769" grid="1" gridSize="10" guides="1" tooltips="1" connect="1" arrows="1" fold="1" page="1" pageScale="1" pageWidth="850" pageHeight="1100" math="0" shadow="0">
      <root>
        <mxCell id="0" />
        <mxCell id="1" parent="0" />
        <mxCell id="8ATC9B71WDK5AEgH5nmT-1" value="Ayrton Senna, Michael Schumacher, Niki Lauda, Juan Manuel Fangio, Lewis Hamilton, Jim Clark" style="rounded=0;whiteSpace=wrap;html=1;" vertex="1" parent="1">
          <mxGeometry x="15" y="90" width="410" height="60" as="geometry" />
        </mxCell>
        <mxCell id="8ATC9B71WDK5AEgH5nmT-2" value="Spa Francorchamps, Nurburgring Nordschleife, Interlagos, Monza, Silverstone" style="rounded=0;whiteSpace=wrap;html=1;" vertex="1" parent="1">
          <mxGeometry x="430" y="90" width="410" height="60" as="geometry" />
        </mxCell>
        <mxCell id="8ATC9B71WDK5AEgH5nmT-3" value="" style="rounded=0;whiteSpace=wrap;html=1;" vertex="1" parent="1">
          <mxGeometry x="110" y="220" width="600" height="360" as="geometry" />
        </mxCell>
        <mxCell id="8ATC9B71WDK5AEgH5nmT-4" value="&lt;font style=&quot;font-size: 36px;&quot;&gt;Formula 1 Tribute&lt;/font&gt;" style="text;html=1;strokeColor=none;fillColor=none;align=center;verticalAlign=middle;whiteSpace=wrap;rounded=0;" vertex="1" parent="1">
          <mxGeometry x="305" y="280" width="210" height="90" as="geometry" />
        </mxCell>
        <mxCell id="8ATC9B71WDK5AEgH5nmT-5" value="" style="rounded=0;whiteSpace=wrap;html=1;" vertex="1" parent="1">
          <mxGeometry x="110" y="630" width="600" height="360" as="geometry" />
        </mxCell>
        <mxCell id="8ATC9B71WDK5AEgH5nmT-7" value="piloto" style="rounded=0;whiteSpace=wrap;html=1;fontSize=12;" vertex="1" parent="1">
          <mxGeometry x="650" y="610" width="120" height="60" as="geometry" />
        </mxCell>
        <mxCell id="8ATC9B71WDK5AEgH5nmT-8" value="Cor Temática" style="ellipse;whiteSpace=wrap;html=1;fontSize=12;" vertex="1" parent="1">
          <mxGeometry x="10" y="910" width="120" height="80" as="geometry" />
        </mxCell>
        <mxCell id="8ATC9B71WDK5AEgH5nmT-9" value="foto do Michael Schumacher" style="rounded=0;whiteSpace=wrap;html=1;fontSize=12;" vertex="1" parent="1">
          <mxGeometry x="230" y="760" width="360" height="210" as="geometry" />
        </mxCell>
        <mxCell id="8ATC9B71WDK5AEgH5nmT-10" value="" style="rounded=0;whiteSpace=wrap;html=1;" vertex="1" parent="1">
          <mxGeometry x="110" y="990" width="600" height="360" as="geometry" />
        </mxCell>
        <mxCell id="8ATC9B71WDK5AEgH5nmT-11" value="Michael Schumacher" style="rounded=0;whiteSpace=wrap;html=1;fontSize=12;" vertex="1" parent="1">
          <mxGeometry x="350" y="700" width="120" height="40" as="geometry" />
        </mxCell>
        <mxCell id="8ATC9B71WDK5AEgH5nmT-12" value="descrição do piloto" style="rounded=0;whiteSpace=wrap;html=1;fontSize=12;" vertex="1" parent="1">
          <mxGeometry x="235" y="1010" width="350" height="190" as="geometry" />
        </mxCell>
        <mxCell id="8ATC9B71WDK5AEgH5nmT-13" value="" style="rounded=0;whiteSpace=wrap;html=1;" vertex="1" parent="1">
          <mxGeometry x="110" y="1350" width="600" height="360" as="geometry" />
        </mxCell>
        <mxCell id="8ATC9B71WDK5AEgH5nmT-14" value="stats do piloto" style="rounded=0;whiteSpace=wrap;html=1;fontSize=12;" vertex="1" parent="1">
          <mxGeometry x="235" y="1230" width="350" height="190" as="geometry" />
        </mxCell>
        <mxCell id="8ATC9B71WDK5AEgH5nmT-15" value="HOME" style="rounded=0;whiteSpace=wrap;html=1;fontSize=12;" vertex="1" parent="1">
          <mxGeometry x="140" y="650" width="90" height="40" as="geometry" />
        </mxCell>
        <mxCell id="8ATC9B71WDK5AEgH5nmT-16" value="Pilotos" style="rounded=0;whiteSpace=wrap;html=1;fontSize=12;" vertex="1" parent="1">
          <mxGeometry x="210" y="410" width="120" height="60" as="geometry" />
        </mxCell>
        <mxCell id="8ATC9B71WDK5AEgH5nmT-17" value="Circuitos" style="rounded=0;whiteSpace=wrap;html=1;fontSize=12;" vertex="1" parent="1">
          <mxGeometry x="350" y="410" width="120" height="60" as="geometry" />
        </mxCell>
        <mxCell id="8ATC9B71WDK5AEgH5nmT-18" value="Rivalidades" style="rounded=0;whiteSpace=wrap;html=1;fontSize=12;" vertex="1" parent="1">
          <mxGeometry x="490" y="410" width="120" height="60" as="geometry" />
        </mxCell>
        <mxCell id="8ATC9B71WDK5AEgH5nmT-19" value="Som da Ferrari F2004" style="ellipse;whiteSpace=wrap;html=1;fontSize=12;" vertex="1" parent="1">
          <mxGeometry x="640" y="240" width="120" height="80" as="geometry" />
        </mxCell>
        <mxCell id="8ATC9B71WDK5AEgH5nmT-20" value="buttons appear from left to right.&lt;br&gt;when the component loads, each category div appears at different times." style="rounded=0;whiteSpace=wrap;html=1;fontSize=12;" vertex="1" parent="1">
          <mxGeometry x="280" y="490" width="290" height="60" as="geometry" />
        </mxCell>
      </root>
    </mxGraphModel>
  </diagram>
</mxfile>
